REM DIRINDEX 1\2,1\3,1\4
REM DIRNAME cjc151,folder01,folder02,folder03
TITLE ""
FILE "123 123_TOEFL_3900.mp3" MP3
  TRACK 01 AUDIO
    TITLE "0:"
    INDEX 01 00:00:00
  TRACK 02 AUDIO
    TITLE "2:cjc151_5337"
    INDEX 01 00:00:13
  TRACK 03 AUDIO
    TITLE "0:"
    INDEX 01 00:01:26
  TRACK 04 AUDIO
    TITLE "3:cjc151_5338"
    INDEX 01 00:03:04
  TRACK 05 AUDIO
    TITLE "0:"
    INDEX 01 00:08:17
  TRACK 06 AUDIO
    TITLE "2:cjc151_5339"
    INDEX 01 00:09:69
  TRACK 07 AUDIO
    TITLE "0:"
    INDEX 01 00:10:68
  TRACK 08 AUDIO
    TITLE "3:cjc151_5340"
    INDEX 01 00:12:60
  TRACK 09 AUDIO
    TITLE "0:"
    INDEX 01 00:16:20
  TRACK 10 AUDIO
    TITLE "2:cjc151_5341"
    INDEX 01 00:17:72
  TRACK 11 AUDIO
    TITLE "0:"
    INDEX 01 00:19:01
  TRACK 12 AUDIO
    TITLE "3:cjc151_5342"
    INDEX 01 00:20:55
  TRACK 13 AUDIO
    TITLE "0:"
    INDEX 01 00:24:69
  TRACK 14 AUDIO
    TITLE "2:cjc151_5343"
    INDEX 01 00:26:48
  TRACK 15 AUDIO
    TITLE "0:"
    INDEX 01 00:27:59
  TRACK 16 AUDIO
    TITLE "3:cjc151_5344"
    INDEX 01 00:29:36
  TRACK 17 AUDIO
    TITLE "0:"
    INDEX 01 00:33:26
  TRACK 18 AUDIO
    TITLE "2:cjc151_5345"
    INDEX 01 00:35:04
  TRACK 19 AUDIO
    TITLE "0:"
    INDEX 01 00:36:29
  TRACK 20 AUDIO
    TITLE "3:cjc151_5346"
    INDEX 01 00:38:04
  TRACK 21 AUDIO
    TITLE "0:"
    INDEX 01 00:42:61
  TRACK 22 AUDIO
    TITLE "2:cjc151_5347"
    INDEX 01 00:44:54
  TRACK 23 AUDIO
    TITLE "0:"
    INDEX 01 00:45:61
  TRACK 24 AUDIO
    TITLE "3:cjc151_5348"
    INDEX 01 00:47:36
  TRACK 25 AUDIO
    TITLE "0:"
    INDEX 01 00:50:52
  TRACK 26 AUDIO
    TITLE "2:cjc151_5349"
    INDEX 01 00:52:32
  TRACK 27 AUDIO
    TITLE "0:"
    INDEX 01 00:53:49
  TRACK 28 AUDIO
    TITLE "3:cjc151_5350"
    INDEX 01 00:55:26
  TRACK 29 AUDIO
    TITLE "0:"
    INDEX 01 00:59:34
  TRACK 30 AUDIO
    TITLE "2:cjc151_5351"
    INDEX 01 01:01:11
  TRACK 31 AUDIO
    TITLE "0:"
    INDEX 01 01:02:34
  TRACK 32 AUDIO
    TITLE "3:cjc151_5352"
    INDEX 01 01:04:15
  TRACK 33 AUDIO
    TITLE "0:"
    INDEX 01 01:08:35
  TRACK 34 AUDIO
    TITLE "2:cjc151_5353"
    INDEX 01 01:10:16
  TRACK 35 AUDIO
    TITLE "0:"
    INDEX 01 01:11:13
  TRACK 36 AUDIO
    TITLE "3:cjc151_5354"
    INDEX 01 01:12:66
  TRACK 37 AUDIO
    TITLE "0:"
    INDEX 01 01:17:02
  TRACK 38 AUDIO
    TITLE "2:cjc151_5355"
    INDEX 01 01:18:56
  TRACK 39 AUDIO
    TITLE "0:"
    INDEX 01 01:19:70
  TRACK 40 AUDIO
    TITLE "3:cjc151_5356"
    INDEX 01 01:21:49
  TRACK 41 AUDIO
    TITLE "0:"
    INDEX 01 01:26:58
  TRACK 42 AUDIO
    TITLE "2:cjc151_5357"
    INDEX 01 01:28:37
  TRACK 43 AUDIO
    TITLE "0:"
    INDEX 01 01:29:54
  TRACK 44 AUDIO
    TITLE "3:cjc151_5358"
    INDEX 01 01:31:32
  TRACK 45 AUDIO
    TITLE "0:"
    INDEX 01 01:36:19
  TRACK 46 AUDIO
    TITLE "2:cjc151_5359"
    INDEX 01 01:38:06
  TRACK 47 AUDIO
    TITLE "0:"
    INDEX 01 01:39:31
  TRACK 48 AUDIO
    TITLE "3:cjc151_5360"
    INDEX 01 01:41:09
  TRACK 49 AUDIO
    TITLE "0:"
    INDEX 01 01:45:20
  TRACK 50 AUDIO
    TITLE "2:cjc151_5361"
    INDEX 01 01:46:74
  TRACK 51 AUDIO
    TITLE "0:"
    INDEX 01 01:48:07
  TRACK 52 AUDIO
    TITLE "3:cjc151_5362"
    INDEX 01 01:49:61
  TRACK 53 AUDIO
    TITLE "0:"
    INDEX 01 01:53:37
  TRACK 54 AUDIO
    TITLE "2:cjc151_5363"
    INDEX 01 01:55:16
  TRACK 55 AUDIO
    TITLE "0:"
    INDEX 01 01:56:49
  TRACK 56 AUDIO
    TITLE "3:cjc151_5364"
    INDEX 01 01:58:27
  TRACK 57 AUDIO
    TITLE "0:"
    INDEX 01 02:01:09
  TRACK 58 AUDIO
    TITLE "2:cjc151_5365"
    INDEX 01 02:02:62
  TRACK 59 AUDIO
    TITLE "0:"
    INDEX 01 02:03:73
  TRACK 60 AUDIO
    TITLE "3:cjc151_5366"
    INDEX 01 02:05:52
  TRACK 61 AUDIO
    TITLE "0:"
    INDEX 01 02:09:73
  TRACK 62 AUDIO
    TITLE "2:cjc151_5367"
    INDEX 01 02:11:53
  TRACK 63 AUDIO
    TITLE "0:"
    INDEX 01 02:12:52
  TRACK 64 AUDIO
    TITLE "3:cjc151_5368"
    INDEX 01 02:14:31
  TRACK 65 AUDIO
    TITLE "0:"
    INDEX 01 02:18:68
  TRACK 66 AUDIO
    TITLE "2:cjc151_5369"
    INDEX 01 02:20:48
  TRACK 67 AUDIO
    TITLE "0:"
    INDEX 01 02:22:02
  TRACK 68 AUDIO
    TITLE "3:cjc151_5370"
    INDEX 01 02:23:56
  TRACK 69 AUDIO
    TITLE "0:"
    INDEX 01 02:27:14
  TRACK 70 AUDIO
    TITLE "2:cjc151_5371"
    INDEX 01 02:28:69
  TRACK 71 AUDIO
    TITLE "0:"
    INDEX 01 02:30:01
  TRACK 72 AUDIO
    TITLE "3:cjc151_5372"
    INDEX 01 02:31:53
  TRACK 73 AUDIO
    TITLE "0:"
    INDEX 01 02:36:00
  TRACK 74 AUDIO
    TITLE "2:cjc151_5373"
    INDEX 01 02:37:52
  TRACK 75 AUDIO
    TITLE "0:"
    INDEX 01 02:38:61
  TRACK 76 AUDIO
    TITLE "3:cjc151_5374"
    INDEX 01 02:40:37
  TRACK 77 AUDIO
    TITLE "0:"
    INDEX 01 02:43:41
  TRACK 78 AUDIO
    TITLE "2:cjc151_5375"
    INDEX 01 02:45:20
  TRACK 79 AUDIO
    TITLE "0:"
    INDEX 01 02:46:33
  TRACK 80 AUDIO
    TITLE "3:cjc151_5376"
    INDEX 01 02:48:13
  TRACK 81 AUDIO
    TITLE "0:"
    INDEX 01 02:51:35
  TRACK 82 AUDIO
    TITLE "2:cjc151_5377"
    INDEX 01 02:53:14
  TRACK 83 AUDIO
    TITLE "0:"
    INDEX 01 02:54:13
  TRACK 84 AUDIO
    TITLE "3:cjc151_5378"
    INDEX 01 02:55:68
  TRACK 85 AUDIO
    TITLE "0:"
    INDEX 01 02:59:58
  TRACK 86 AUDIO
    TITLE "2:cjc151_5379"
    INDEX 01 03:01:37
  TRACK 87 AUDIO
    TITLE "0:"
    INDEX 01 03:02:48
  TRACK 88 AUDIO
    TITLE "3:cjc151_5380"
    INDEX 01 03:04:27
  TRACK 89 AUDIO
    TITLE "0:"
    INDEX 01 03:08:72
